HIERARCHY
ROOT Hips
{
	OFFSET -14.64140 90.27770 -84.91600
	CHANNELS 6 Xposition Yposition Zposition Zrotation Xrotation Yrotation
	JOINT Spine
	{
		OFFSET 0.00000 13.20850 -1.60436
		CHANNELS 3 Zrotation Xrotation Yrotation
		JOINT Spine1
		{
			OFFSET 0.00000 8.61716 0.00000
			CHANNELS 3 Zrotation Xrotation Yrotation
			JOINT Spine2
			{
				OFFSET 0.00000 8.61717 0.00000
				CHANNELS 3 Zrotation Xrotation Yrotation
				JOINT Spine3
				{
					OFFSET 0.00000 8.61717 0.00000
					CHANNELS 3 Zrotation Xrotation Yrotation
					JOINT Neck
					{
						OFFSET 0.00000 11.07920 1.10792
						CHANNELS 3 Zrotation Xrotation Yrotation
						JOINT Neck1
						{
							OFFSET 0.00000 7.08032 0.00000
							CHANNELS 3 Zrotation Xrotation Yrotation
							JOINT Head
							{
								OFFSET 0.00000 7.08031 0.00000
								CHANNELS 3 Zrotation Xrotation Yrotation
								End site
								{
									OFFSET 0.00000 0.00000 0.00000
								}
							}
						}
					}
					JOINT RightShoulder
					{
						OFFSET -0.01000 7.91373 5.19711
						CHANNELS 3 Zrotation Xrotation Yrotation
						JOINT RightArm
						{
							OFFSET -18.41580 0.00000 0.00000
							CHANNELS 3 Zrotation Xrotation Yrotation
							JOINT RightForeArm
							{
								OFFSET -29.11090 0.00000 0.00000
								CHANNELS 3 Zrotation Xrotation Yrotation
								JOINT RightHand
								{
									OFFSET -24.65040 0.00000 0.00000
									CHANNELS 3 Zrotation Xrotation Yrotation
									JOINT RightHandThumb1
									{
										OFFSET -5.35114 -0.85590 3.97906
										CHANNELS 3 Zrotation Xrotation Yrotation
										JOINT RightHandThumb2
										{
											OFFSET -4.52789 0.00000 0.00000
											CHANNELS 3 Zrotation Xrotation Yrotation
											JOINT RightHandThumb3
											{
												OFFSET -2.46976 0.00000 0.00000
												CHANNELS 3 Zrotation Xrotation Yrotation
												End site
												{
													OFFSET 0.00000 0.00000 0.00000
												}
											}
										}
									}
									JOINT RightHandIndex1
									{
										OFFSET -14.26970 0.00000 2.88139
										CHANNELS 3 Zrotation Xrotation Yrotation
										JOINT RightHandIndex2
										{
											OFFSET -5.48836 0.00000 0.00000
											CHANNELS 3 Zrotation Xrotation Yrotation
											JOINT RightHandIndex3
											{
												OFFSET -3.01859 0.00000 0.00000
												CHANNELS 3 Zrotation Xrotation Yrotation
												End site
												{
													OFFSET 0.00000 0.00000 0.00000
												}
											}
										}
									}
									JOINT RightHandMiddle1
									{
										OFFSET -14.26970 0.00000 -0.09147
										CHANNELS 3 Zrotation Xrotation Yrotation
										JOINT RightHandMiddle2
										{
											OFFSET -6.17441 0.00000 0.00000
											CHANNELS 3 Zrotation Xrotation Yrotation
											JOINT RightHandMiddle3
											{
												OFFSET -3.56743 0.00000 0.00000
												CHANNELS 3 Zrotation Xrotation Yrotation
												End site
												{
													OFFSET 0.00000 0.00000 0.00000
												}
											}
										}
									}
									JOINT RightHandRing1
									{
										OFFSET -12.69180 0.00000 -3.06433
										CHANNELS 3 Zrotation Xrotation Yrotation
										JOINT RightHandRing2
										{
											OFFSET -5.62556 0.00000 0.00000
											CHANNELS 3 Zrotation Xrotation Yrotation
											JOINT RightHandRing3
											{
												OFFSET -3.56744 0.00000 0.00000
												CHANNELS 3 Zrotation Xrotation Yrotation
												End site
												{
													OFFSET 0.00000 0.00000 0.00000
												}
											}
										}
									}
									JOINT RightHandPinky1
									{
										OFFSET -11.11390 0.00000 -6.03719
										CHANNELS 3 Zrotation Xrotation Yrotation
										JOINT RightHandPinky2
										{
											OFFSET -4.52789 0.00000 0.00000
											CHANNELS 3 Zrotation Xrotation Yrotation
											JOINT RightHandPinky3
											{
												OFFSET -2.46976 0.00000 0.00000
												CHANNELS 3 Zrotation Xrotation Yrotation
												End site
												{
													OFFSET 0.00000 0.00000 0.00000
												}
											}
										}
									}
								}
							}
						}
					}
					JOINT LeftShoulder
					{
						OFFSET 0.01000 7.91373 5.19711
						CHANNELS 3 Zrotation Xrotation Yrotation
						JOINT LeftArm
						{
							OFFSET 18.41580 0.00000 0.00000
							CHANNELS 3 Zrotation Xrotation Yrotation
							JOINT LeftForeArm
							{
								OFFSET 29.11090 0.00000 0.00000
								CHANNELS 3 Zrotation Xrotation Yrotation
								JOINT LeftHand
								{
									OFFSET 24.65040 0.00000 0.00000
									CHANNELS 3 Zrotation Xrotation Yrotation
									JOINT LeftHandThumb1
									{
										OFFSET 5.35114 -0.85590 3.97906
										CHANNELS 3 Zrotation Xrotation Yrotation
										JOINT LeftHandThumb2
										{
											OFFSET 4.52789 0.00000 0.00000
											CHANNELS 3 Zrotation Xrotation Yrotation
											JOINT LeftHandThumb3
											{
												OFFSET 2.46977 0.00000 0.00000
												CHANNELS 3 Zrotation Xrotation Yrotation
												End site
												{
													OFFSET 0.00000 0.00000 0.00000
												}
											}
										}
									}
									JOINT LeftHandIndex1
									{
										OFFSET 14.26970 0.00000 2.88139
										CHANNELS 3 Zrotation Xrotation Yrotation
										JOINT LeftHandIndex2
										{
											OFFSET 5.48836 0.00000 0.00000
											CHANNELS 3 Zrotation Xrotation Yrotation
											JOINT LeftHandIndex3
											{
												OFFSET 3.01859 0.00000 0.00000
												CHANNELS 3 Zrotation Xrotation Yrotation
												End site
												{
													OFFSET 0.00000 0.00000 0.00000
												}
											}
										}
									}
									JOINT LeftHandMiddle1
									{
										OFFSET 14.26970 0.00000 -0.09147
										CHANNELS 3 Zrotation Xrotation Yrotation
										JOINT LeftHandMiddle2
										{
											OFFSET 6.17440 0.00000 0.00000
											CHANNELS 3 Zrotation Xrotation Yrotation
											JOINT LeftHandMiddle3
											{
												OFFSET 3.56744 0.00000 0.00000
												CHANNELS 3 Zrotation Xrotation Yrotation
												End site
												{
													OFFSET 0.00000 0.00000 0.00000
												}
											}
										}
									}
									JOINT LeftHandRing1
									{
										OFFSET 12.69180 0.00000 -3.06433
										CHANNELS 3 Zrotation Xrotation Yrotation
										JOINT LeftHandRing2
										{
											OFFSET 5.62556 0.00000 0.00000
											CHANNELS 3 Zrotation Xrotation Yrotation
											JOINT LeftHandRing3
											{
												OFFSET 3.56744 0.00000 0.00000
												CHANNELS 3 Zrotation Xrotation Yrotation
												End site
												{
													OFFSET 0.00000 0.00000 0.00000
												}
											}
										}
									}
									JOINT LeftHandPinky1
									{
										OFFSET 11.11390 0.00000 -6.03719
										CHANNELS 3 Zrotation Xrotation Yrotation
										JOINT LeftHandPinky2
										{
											OFFSET 4.52789 0.00000 0.00000
											CHANNELS 3 Zrotation Xrotation Yrotation
											JOINT LeftHandPinky3
											{
												OFFSET 2.46976 0.00000 0.00000
												CHANNELS 3 Zrotation Xrotation Yrotation
												End site
												{
													OFFSET 0.00000 0.00000 0.00000
												}
											}
										}
									}
								}
							}
						}
					}
					JOINT pCube4
					{
						OFFSET 0.00000 10.91090 1.10792
						CHANNELS 3 Zrotation Xrotation Yrotation
						End site
						{
							OFFSET 0.00000 0.00000 0.00000
						}
					}
				}
			}
		}
	}
	JOINT RightUpLeg
	{
		OFFSET -9.98441 0.00000 0.00000
		CHANNELS 3 Zrotation Xrotation Yrotation
		JOINT RightLeg
		{
			OFFSET 0.00000 -42.11790 0.00000
			CHANNELS 3 Zrotation Xrotation Yrotation
			JOINT RightFoot
			{
				OFFSET 0.00000 -45.00020 -0.00001
				CHANNELS 3 Zrotation Xrotation Yrotation
				JOINT RightForeFoot
				{
					OFFSET 0.00000 -3.74820 0.00000
					CHANNELS 3 Zrotation Xrotation Yrotation
					JOINT RightToeBase
					{
						OFFSET 0.00000 0.06325 14.43120
						CHANNELS 3 Zrotation Xrotation Yrotation
						End site
						{
							OFFSET 0.00000 0.00000 0.00000
						}
					}
				}
			}
		}
	}
	JOINT LeftUpLeg
	{
		OFFSET 9.98441 0.00000 0.00000
		CHANNELS 3 Zrotation Xrotation Yrotation
		JOINT LeftLeg
		{
			OFFSET 0.00000 -42.11800 0.00000
			CHANNELS 3 Zrotation Xrotation Yrotation
			JOINT LeftFoot
			{
				OFFSET 0.00000 -45.00070 0.00000
				CHANNELS 3 Zrotation Xrotation Yrotation
				JOINT LeftForeFoot
				{
					OFFSET 0.00000 -3.74824 0.00000
					CHANNELS 3 Zrotation Xrotation Yrotation
					JOINT LeftToeBase
					{
						OFFSET 0.00000 0.06325 14.43110
						CHANNELS 3 Zrotation Xrotation Yrotation
						End site
						{
							OFFSET 0.00000 0.00000 0.00000
						}
					}
				}
			}
		}
	}
}
MOTION
Frames: 4
Frame Time: 0.050000
-0.03672148862348625 -0.0018701898394006588 -0.03902918172486352 -0.020796420319734686 0.04003326959759767 0.03417406488584462 4.061946345572228 4.425742317270128 -1.8468813977613463 -0.9735403181029685 3.9158512875800766 0.4050002191367741 -0.5917720733985272 -0.9755398301181528 0.3685821538466687 -0.5904306204756333 0.17344050080799414 -0.3718625899822643 -0.9286000439243276 13.827967949799312 1.2826980719381154 0.2102082170777246 -0.9106117956632804 3.367676067250626 0.14815434938399774 -17.91018229461847 0.21181422095798658 -8.240959776052616 2.99111139506558 -16.993325679541176 80.48532380700014 15.31617716949689 2.355274434939326 -0.6760074723958345 5.989571532000195 55.28852037674317 14.354186455619304 -0.20958748494560295 -1.2083839940618852 4.5738702915662826 -0.11772698083986258 -1.5961611297092184 -0.04327864432038338 -0.007290804901789593 -56.205688272141074 -0.024347658332286054 -0.03980058219237805 -56.27653461846885 -38.77932962576854 0.04520965121808208 0.025726419103511675 0.0011661527246006255 -0.0016956264216572675 -0.04185222863046076 -0.04907239709378897 0.007870710540653005 -0.0009086381973349459 -36.6876805789962 0.022454867333347183 -0.04826949024628977 -0.0028944490351263375 -0.025953428581355964 -0.03572824723561113 0.029401493791737426 0.017101426519791442 0.04843971131035621 -19.74308751018035 -0.013541066141030005 0.03507184144026804 0.047321549508976365 0.007599564759184991 0.02671001493180779 -0.031663284013977264 0.02629962130848255 0.02190593243102419 24.076137342211634 0.04639908786861523 0.004846910984964356 28.862639137374618 0.021181381791837164 -0.024905096245085714 28.841658755772542 -0.009108443816867583 -0.026640141363466523 10.428465686587549 2.3674377027554003 14.958469516525943 -72.8473471191823 25.615925673846714 -18.0624901481952 16.701434724279615 -6.736023529772146 -71.91605867454547 -7.140045433534098 1.1222085778091864 -2.5964296771329436 -0.5178971082941155 0.09930485868845765 -8.152383960601417 0.04072774401276866 -0.009028180421089091 44.53745983808619 -0.010631823565761778 -0.015228516192637289 44.59885526502752 12.50322627272914 0.026830840294520646 0.008297497077190262 0.004480730565425198 -0.008094678959007812 -0.02208972048076798 0.030122598139728212 -0.04281370895529651 0.03391775401385472 11.143575688720757 -0.006211321054953686 0.003634555849805337 -0.03711918755350136 0.015472722205363618 0.009619602789541 -0.03716396472782412 -0.0009092468609148566 -0.02075155939989292 4.757135051659789 -0.004303461617027446 0.029654962088423154 -0.032827952407676594 -0.006824314186309455 0.018801964120775658 0.032644150771182094 0.04961538626409212 0.01876147460384904 -5.562942448296227 -0.0497022936085082 -0.008420762658119026 -6.755273237387839 -0.004129682827727257 0.0064190080754367804 -6.738158121283561 0.029214115111977513 0.001954977014588402 -0.015862094869116827 -0.003328320555575543 -0.027567602290990447 8.054792228957057 3.496680002334266 -19.23321177562402 0.038208295489513114 10.413035157285751 -0.031715836031357955 -5.654001322302873 -15.659554256907711 3.2223898691530692 -0.021954336373801432 0.03891704607840539 0.028708052267190164 -0.048716805609277096 4.737804726483031 -0.02396097202040791 12.41159525833893 -8.20438811483742 6.8976494385537634 0.04193235122897108 46.339799378195686 -0.026134455362229247 -4.312202494724344 -14.770038634245248 -3.8142174467334984 -0.028778757372900483 -0.006832613877640725 0.0336088209862561 -0.02098765528103158 -10.733568335582031 -0.047418146307591294 
0.03997329588829732 0.03092690904379148 0.04986462722241919 -0.01694435950937728 0.03162838570393849 0.027038346033160927 4.24656528476535 4.318565798663792 -1.8614852205706287 -0.9075842465899099 3.940680332239033 0.42067919179210106 -0.6374050783248711 -1.0004719793617989 0.42978747120092886 -0.40813283281449164 0.19265890813926406 -0.32137649589045497 -0.7806979294719484 13.858057426776824 0.6765024933824755 0.28157300187991763 -0.9238428985120295 1.92765356562016 0.3213898118437492 -17.92390844514121 0.07857864509320203 -8.442403463348645 2.9973714880828157 -17.178137796689434 80.68128268427638 15.354171438163513 2.218461141844009 -0.5373665999321305 5.713937185018344 54.540146218248154 14.384979756267747 -0.17592262193107347 -1.0139405310234992 4.515537416463707 -0.10410406354344438 -1.6257866965525019 -0.006281499514362464 0.03367356334172486 -56.21923288921074 0.028224670226936123 0.03864748817490829 -56.25877033497421 -38.78763577161285 0.03813410131273322 -0.013778813596981056 -0.015739239978927993 0.03684148655599109 -0.010673196428765762 -0.01239988108030196 -0.027156299171298765 0.043846092776737046 -36.681042130948576 0.026800551024910847 -0.010765447647218523 0.0010368722820472283 -0.028537010382956432 0.019690569950808777 -0.03158389797320104 0.03979985238471615 0.015354971805718704 -19.75834960761383 0.0005669547931611781 0.03800181730004421 -0.01938788646050187 -0.007318135699181894 0.020550767961418498 -0.006246227465754023 -0.03503735201985995 0.0025326461283562154 24.035165340701948 -0.0018720960188963103 0.01026667449863923 28.8636133267083 0.017658580679133354 0.027685792565332247 28.905086227671585 -0.04410724445356101 0.002142326325908367 10.284268687468236 2.308551626904587 14.962258643641512 -72.83408785460419 26.362358029439974 -16.868596360397305 17.75626736099892 -8.32266317336033 -73.70678173425284 -6.161966015940146 1.553649625372938 -3.8050420506609655 -0.45441919063876457 0.05359513052696383 -8.106041708494347 0.02566173144966454 0.04563968350963507 44.57265097766899 0.003782961561481766 -0.038392477211020834 44.52494330523754 12.466032883148689 0.044719978390450665 -0.03648008842214499 -0.030763544032264577 0.028846354744207887 0.0247695661159331 0.025963489626422892 0.00875905142435189 0.0038342059911967534 11.140789570274894 0.013414435668969254 -0.023668306461975548 -0.02606001172836105 -0.014685566797510576 0.04718759859208666 -0.010456396020526679 -0.037791169192748164 0.00025863855501326056 4.7911810851469445 0.009364736784705561 -0.021380667619758667 0.045552785258306985 -0.02054027399823467 -0.015893001250050772 0.008750620699418924 0.015558897814196936 -0.010527863221617193 -5.556539243172078 -0.04438176284285095 -0.0308654507419637 -6.741799838176264 -0.040892691836707816 0.014387966081756595 -6.76899470271187 -0.023883170459736924 0.028187869864194373 0.005074432738290857 0.04610376394497345 -0.029378262386019916 8.088766102348893 3.469037739485975 -19.237432923266088 -0.04897187900581223 10.37804112538141 0.05972864780317445 -5.651566066729011 -15.615893771048533 3.238599977566681 0.0019850151006231918 0.008159697043547489 -0.014094646059370749 -0.013536618248091969 4.713999523176795 0.02011842416476511 12.459204903886231 -8.260223010321326 6.909908908039105 -0.0263806767879419 46.40919068650396 -0.0300706127971544 -4.2856146292836605 -14.766553079081843 -3.7989415061749554 0.0007306203991088825 -0.01632973457109404 0.0010015574418883375 0.016767760396379873 -10.712879689698804 -0.03798902791618772 
-0.02848335842371688 0.025452722154944693 -0.03554358502885988 0.03250263988377535 0.02761804980729246 -0.04440148208831712 4.448758692572817 4.268143253669798 -1.9425548429059445 -0.8740485670973193 3.944167621125185 0.34644335315268365 -0.6949501614659312 -1.0581044672100541 0.4798772034545209 -0.2809633714469905 0.22216743469157083 -0.37201796467588033 -0.5013544010081674 13.952929182224493 0.0723459532296463 0.36024242476788343 -0.9855006969471573 0.5926526563471386 0.5625045741359909 -18.007993743865573 0.016492381372983776 -8.596714971310083 3.003583097319572 -17.316854782093873 80.96449132320237 15.279628799850238 1.9968052144471164 -0.29593665964654264 5.55195668902661 53.46304768813346 14.60319578649326 -0.21090769467734788 -0.7058322424698271 4.495013355607737 -0.1158745503373884 -1.6041652458399056 0.007894401728628108 0.00397546266358443 -56.27093339579409 0.03534030725119883 0.039640473723652536 -56.2782488871297 -38.80083225890373 -0.03904806713212715 0.041414724041438415 -0.011576605904974693 -8.299864903245486e-05 -0.009125111998340256 -0.043103506320124704 0.028217870218514074 -0.012834197385192474 -36.739777576828715 -0.016472902248786604 -0.024458527604575835 0.03279727822049869 0.03474788557003774 0.004709414215316706 0.0005248108167696868 0.02505366675765557 -0.03255914716060385 -19.76275102969667 -0.0012399569772905126 3.903590201902561e-06 -0.04338632569669196 -0.01544841949954301 0.04339966144930206 -0.03386548198593796 -0.01754369276781382 0.0029297180486549178 24.042220056678833 -0.022480961391707348 0.015484571709103322 28.898579766268643 0.03823573507430184 -0.02527835814034805 28.854608179344496 0.011888083830046282 -0.029014672556900784 10.031139856914516 2.298942506457613 14.960968272088598 -72.98763185374678 27.111438962583208 -15.783333305351396 18.190154952102347 -8.981831216713276 -75.57280636267744 -5.562056566478806 2.0407802512087376 -5.047804458069971 -0.44471191613553046 0.10694683164160035 -8.154363607266333 0.029541560026320673 0.019877948318355747 44.5392651949757 0.010571928949429472 0.008129414019507857 44.56812015326751 12.448671723465464 -0.04692111788118393 0.004839765656342983 -0.04692476923945336 -0.02105645790865094 -0.009682861219838185 -0.007869926351651091 0.028116922958541117 -0.020570898841698538 11.119387509605916 -0.03788162297733049 -0.04578175595904758 0.015535045751196474 -0.03305421271271526 0.03177059105646597 -0.03749239401238399 -0.009252526748700717 0.031097872298874132 4.810728901980923 -0.02573972187673317 0.020979062001611207 -0.006326202965744362 0.03515165829125567 0.04447011635854651 -0.011380120105895479 -0.016350317837362825 0.04430892626938275 -5.592471746675175 -0.006760479042700494 0.010077106386958556 -6.738800771924833 0.01886738365958003 -0.028036073027399126 -6.7493217305316655 -0.0042677661703824955 0.008913515191251107 -0.03570023308679916 -0.02630202179718465 -0.025020015229080907 8.042196954516754 3.517550881166039 -19.263800962462422 0.017686040799191095 10.436797016151571 0.032184067516058096 -5.585802465320653 -15.670752105328006 3.1712304201020025 -0.007404198777994209 -0.04345870390532566 0.02838787688881956 -0.03813786023685613 4.67223711299513 -0.019472299973744295 12.493886322240689 -8.190599378713886 6.833770287231265 0.013709522546164943 46.34207929111446 0.028131018539886792 -4.314738708853221 -14.724682363187556 -3.8344168389727256 0.020456431634130693 -0.017271682625220712 0.043627365498061094 -0.0029630927683927987 -10.720815276945567 0.02745594853573149 
-0.040931127063186634 0.006338341088700655 -0.009038937722856834 0.01082894403312516 0.026565296041462558 -0.007554109412085737 4.624124209980315 4.197063209074232 -1.9259269045945677 -0.8452142500983361 3.9120310618017857 0.36667358457665805 -0.6534478479785343 -1.045122244591549 0.4839774766557401 -0.11394500486111199 0.1951543205535709 -0.37457688817064855 -0.3569136712648822 13.882967478826833 -0.4396021200637528 0.3328298249443903 -0.9746506177173235 -0.6946898584811678 0.800107128504488 -18.18299455251879 -0.13730052408652507 -8.814015266161503 3.0369483982297716 -17.445651784315142 81.23204483303901 14.750353981941046 1.817154515111928 -0.15577442028860503 5.508187799772895 52.34528851302785 14.777219460820424 -0.1722710735914815 -0.48516034689644194 4.519845269930726 -0.12668069715101532 -1.5759568857516444 -0.02120438294487292 0.01042077674393614 -56.196867024043065 -0.01923458998069586 0.035146640311908235 -56.211744161992485 -38.778199037531515 0.03906657127587772 0.01653625802129016 -0.01914804723236097 0.032229546408979196 -0.030713595042170826 0.012626824875059318 -0.0035361666485542623 -0.03732807598079314 -36.67243160844856 -0.0039269545439843566 -0.005529570530215453 0.03357236263020635 -0.04804518610525798 -0.02182813046473407 0.03802208345196048 -0.029829991343204194 -0.0017453809988979287 -19.76232585761282 -0.008911860600433353 0.013618357974098484 -0.010207918737428578 0.006876372705282159 -0.018139385383503154 0.009411044264664237 -0.04563666486185939 -0.04215885748181343 24.076326926469747 0.04403285181162526 -0.035050920045483505 28.85957421136718 -0.015189393354747968 -0.024820082104808235 28.914823086757867 -0.017130069622341523 -0.02874853064909479 9.898250389652116 2.325145668217711 15.03592342356802 -73.09712618848341 27.558345151951066 -14.900706603393454 17.82918188234906 -9.176471207395792 -76.34969830113555 -5.4914684242998835 2.420131201046891 -5.847215852859199 -0.43275151635313175 0.09359747488775554 -8.092530144780214 -0.002366426988720416 0.011605708490785127 44.59293065839098 0.02044934562387077 0.0334544631180924 44.6149713523618 12.495564553418605 -0.002380794313835699 -0.0013762036241444183 -0.0481506385350485 0.022049784091595737 0.0244905419165668 -0.0139302275690332 -0.029752219928508815 0.03396892236283773 11.069176918072118 -0.011603342032102289 -0.03159639170968707 -0.01405109310895304 -0.025820576512036394 0.017535587769682167 -0.012133504100225151 0.026286895421909047 -0.019045981824295427 4.760537320460309 0.028966643619795254 -0.021146875518060725 0.027033772307998322 0.01794233483420787 0.0199978340246703 -0.018861679528499896 0.023298412257099797 -0.036723977116730776 -5.585040719134386 -0.0006819854822059973 -0.023217662052587466 -6.734989866891003 0.01536499315525813 0.006383846138547395 -6.6941802734790405 0.027066756856876224 -0.011383079024335942 0.032617317926001796 -0.0349940204818159 0.047649599308736086 8.016809497540454 3.4575475827509403 -19.1926866172817 -0.005018878436303535 10.358088484433106 0.016834928707289455 -5.615128361326604 -15.62451604162067 3.2096154802626344 -0.02022916700689195 -0.0006561260146933343 -0.04201664798869923 -0.026688688260068854 4.707764616295045 0.015311862115832896 12.437555211488277 -8.230791335520685 6.8980479655519655 0.0005207950690569729 46.364157978432154 0.006988536481167218 -4.2912435231416834 -14.718230191129301 -3.835866640440538 0.030927839861398562 0.016791022189397233 -0.022251586219462147 -0.004981006228404914 -10.764996712316083 -0.02307592944346156 
